<svg width="200" height="80" viewBox="0 0 200 80" fill="none" xmlns="http://www.w3.org/2000/svg">
<path fill-rule="evenodd" clip-rule="evenodd" d="M27.8917 31.167C30.5048 27.6524 34.6891 25.3753 39.4052 25.3753C44.149 25.3753 48.3548 27.6792 50.9646 31.2291C50.8533 31.3433 50.7522 31.4617 50.6609 31.5799C50.1827 32.199 49.8232 32.9964 49.5348 33.8062C48.9547 35.4348 48.512 37.5621 48.1023 39.5543L48.0655 39.7334C47.6567 41.7218 47.2766 43.571 46.8171 44.9438C46.6107 45.5606 46.4148 45.9964 46.2414 46.2758C46.0603 45.9944 45.8546 45.553 45.6369 44.9275C45.1452 43.5153 44.7322 41.5944 44.2939 39.5434L44.2796 39.4763L44.2795 39.4761C43.8586 37.5061 43.4119 35.4159 42.8549 33.8159C42.5751 33.0122 42.2318 32.2227 41.7827 31.6094C41.342 31.0075 40.6084 30.3281 39.5355 30.3281C38.4694 30.3281 37.7324 31.0001 37.2853 31.5953C36.8276 32.2046 36.4708 32.9908 36.1768 33.795C35.5848 35.4143 35.1008 37.5324 34.6504 39.5273L34.6038 39.7333L34.6038 39.7334C34.1578 41.7095 33.7408 43.5569 33.2676 44.9324C33.0868 45.4576 32.9163 45.857 32.762 46.1424C32.6112 45.8583 32.445 45.4617 32.2691 44.9405C31.8151 43.5946 31.4173 41.7989 30.9901 39.8701L30.9153 39.5326C30.4726 37.5366 29.9924 35.4146 29.392 33.7902C29.0937 32.983 28.7288 32.1929 28.2566 31.5807C28.1497 31.4421 28.0282 31.3015 27.8917 31.167ZM26.3102 33.8658C26.4346 34.1115 26.5662 34.4161 26.7023 34.7843C27.222 36.1904 27.6624 38.1089 28.1158 40.1535L28.204 40.5518C28.6169 42.4174 29.0463 44.3579 29.5521 45.8572C29.8211 46.6546 30.146 47.4357 30.5639 48.0427C30.959 48.6167 31.6678 49.358 32.7578 49.358C33.8446 49.358 34.5551 48.6203 34.9529 48.0487C35.3744 47.4431 35.7046 46.6631 35.979 45.8653C36.5052 44.3362 36.9532 42.3502 37.3819 40.4495L37.3819 40.4494L37.4475 40.1589C37.9094 38.1131 38.3541 36.1907 38.87 34.7796C39.109 34.1258 39.3328 33.6703 39.5276 33.3877C39.7122 33.6679 39.9231 34.1161 40.1468 34.7586C40.6384 36.1709 41.0514 38.0917 41.4897 40.1427L41.5041 40.2098C41.9251 42.1799 42.3718 44.2702 42.9288 45.8702C43.2085 46.6739 43.5519 47.4634 44.0009 48.0767C44.4416 48.6786 45.1752 49.358 46.2481 49.358C47.3264 49.358 48.0574 48.6726 48.4929 48.0653C48.9349 47.4489 49.2676 46.657 49.5364 45.8539C50.0524 44.3122 50.4633 42.3115 50.8542 40.4083L50.8542 40.4082L50.911 40.1319C51.3323 38.0834 51.7368 36.1701 52.2361 34.7683C52.3446 34.4635 52.4508 34.2034 52.5529 33.9851C53.3182 35.7394 53.7427 37.6766 53.7427 39.7129C53.7427 47.6313 47.3236 54.0504 39.4052 54.0504C31.4868 54.0504 25.0676 47.6313 25.0676 39.7129C25.0676 37.6303 25.5117 35.6515 26.3102 33.8658ZM39.4052 22.5078C29.9031 22.5078 22.2001 30.2108 22.2001 39.7129C22.2001 49.215 29.9031 56.9179 39.4052 56.9179C48.9073 56.9179 56.6102 49.215 56.6102 39.7129C56.6102 30.2108 48.9073 22.5078 39.4052 22.5078ZM39.733 33.1477C39.733 33.1481 39.7296 33.1507 39.7229 33.1547C39.7296 33.1493 39.733 33.1474 39.733 33.1477ZM39.3366 33.1497C39.33 33.1456 39.3267 33.1428 39.3267 33.1424C39.3267 33.1421 39.33 33.1441 39.3366 33.1497ZM46.0299 46.5482C46.0298 46.5478 46.033 46.545 46.0395 46.5408C46.0331 46.5464 46.0299 46.5485 46.0299 46.5482ZM46.447 46.5364C46.4537 46.5405 46.457 46.5433 46.457 46.5437C46.4569 46.544 46.4536 46.542 46.447 46.5364ZM32.4639 46.5737C32.4639 46.5732 32.468 46.5693 32.4763 46.5635C32.4681 46.5712 32.464 46.5742 32.4639 46.5737ZM33.0446 46.5662C33.0529 46.5721 33.057 46.5761 33.0569 46.5765C33.0569 46.577 33.0528 46.5741 33.0446 46.5662Z" fill="#FCBB01"/>
<path d="M66.1104 49.8984L61.9383 35.6268H65.5925L68.067 45.8989L70.9443 35.6268H75.0301L77.9074 45.8989L80.4107 35.6268H84.0649L79.864 49.8984H76.0371L72.9872 39.2235L69.9372 49.8984H66.1104Z" fill="#242A31"/>
<path d="M89.4273 50.2436C88.1996 50.2436 87.1925 50.0518 86.4061 49.6682C85.6196 49.2654 85.0345 48.7378 84.6509 48.0856C84.2673 47.4335 84.0754 46.7141 84.0754 45.9277C84.0754 44.6041 84.5934 43.5299 85.6292 42.7051C86.665 41.8802 88.2188 41.4678 90.2905 41.4678H93.9159V41.1225C93.9159 40.1442 93.6377 39.4249 93.0815 38.9645C92.5252 38.5042 91.8346 38.274 91.0098 38.274C90.2617 38.274 89.6095 38.4562 89.0532 38.8207C88.4969 39.1659 88.1516 39.6839 88.0174 40.3744H84.4207C84.5166 39.3386 84.8619 38.437 85.4566 37.6697C86.0704 36.9025 86.8568 36.3174 87.816 35.9146C88.7751 35.4926 89.8493 35.2816 91.0386 35.2816C93.0719 35.2816 94.6736 35.7899 95.8437 36.8065C97.0138 37.8232 97.5989 39.2619 97.5989 41.1225V49.8984H94.4626L94.1173 47.5965C93.6953 48.3638 93.1006 48.9968 92.3334 49.4955C91.5852 49.9943 90.6166 50.2436 89.4273 50.2436ZM90.2617 47.3663C91.3167 47.3663 92.1319 47.021 92.7074 46.3305C93.302 45.6399 93.6761 44.7863 93.8296 43.7697H90.6933C89.715 43.7697 89.0148 43.9519 88.5928 44.3164C88.1708 44.6616 87.9598 45.0932 87.9598 45.6112C87.9598 46.1674 88.1708 46.599 88.5928 46.9059C89.0148 47.2129 89.5711 47.3663 90.2617 47.3663Z" fill="#242A31"/>
<path d="M103.397 49.8984L98.1599 35.6268H102.016L105.641 46.4168L109.266 35.6268H113.122L107.857 49.8984H103.397Z" fill="#242A31"/>
<path d="M120.526 50.2436C119.087 50.2436 117.812 49.9367 116.699 49.3229C115.587 48.7091 114.714 47.8459 114.081 46.7333C113.448 45.6207 113.131 44.3355 113.131 42.8777C113.131 41.4007 113.438 40.0867 114.052 38.9358C114.685 37.7848 115.548 36.8929 116.642 36.2599C117.754 35.6077 119.059 35.2816 120.555 35.2816C121.955 35.2816 123.192 35.5885 124.266 36.2023C125.341 36.8161 126.175 37.6602 126.77 38.7344C127.384 39.7894 127.69 40.9691 127.69 42.2735C127.69 42.4845 127.681 42.7051 127.662 42.9352C127.662 43.1654 127.652 43.4052 127.633 43.6546H116.785C116.862 44.7671 117.246 45.6399 117.936 46.2729C118.646 46.9059 119.5 47.2225 120.497 47.2225C121.245 47.2225 121.869 47.0594 122.367 46.7333C122.885 46.388 123.269 45.9468 123.518 45.4097H127.259C126.99 46.3113 126.54 47.1361 125.907 47.8842C125.293 48.6132 124.525 49.1886 123.605 49.6106C122.703 50.0326 121.677 50.2436 120.526 50.2436ZM120.555 38.274C119.653 38.274 118.857 38.5329 118.167 39.0509C117.476 39.5496 117.035 40.3169 116.843 41.3527H123.95C123.892 40.4128 123.547 39.6647 122.914 39.1084C122.281 38.5521 121.495 38.274 120.555 38.274Z" fill="#242A31"/>
<path d="M129.637 49.8984V29.1816H133.32V49.8984H129.637Z" fill="#242A31"/>
<path d="M142.867 50.2436C141.428 50.2436 140.153 49.9367 139.04 49.3229C137.927 48.7091 137.055 47.8459 136.422 46.7333C135.789 45.6207 135.472 44.3355 135.472 42.8777C135.472 41.4007 135.779 40.0867 136.393 38.9358C137.026 37.7848 137.889 36.8929 138.982 36.2599C140.095 35.6077 141.399 35.2816 142.896 35.2816C144.296 35.2816 145.533 35.5885 146.607 36.2023C147.681 36.8161 148.516 37.6602 149.111 38.7344C149.724 39.7894 150.031 40.9691 150.031 42.2735C150.031 42.4845 150.022 42.7051 150.003 42.9352C150.003 43.1654 149.993 43.4052 149.974 43.6546H139.126C139.203 44.7671 139.587 45.6399 140.277 46.2729C140.987 46.9059 141.841 47.2225 142.838 47.2225C143.586 47.2225 144.21 47.0594 144.708 46.7333C145.226 46.388 145.61 45.9468 145.859 45.4097H149.6C149.331 46.3113 148.88 47.1361 148.247 47.8842C147.634 48.6132 146.866 49.1886 145.946 49.6106C145.044 50.0326 144.018 50.2436 142.867 50.2436ZM142.896 38.274C141.994 38.274 141.198 38.5329 140.507 39.0509C139.817 39.5496 139.376 40.3169 139.184 41.3527H146.291C146.233 40.4128 145.888 39.6647 145.255 39.1084C144.622 38.5521 143.835 38.274 142.896 38.274Z" fill="#242A31"/>
<path d="M157.877 50.2436C156.61 50.2436 155.498 50.0422 154.539 49.6394C153.58 49.2174 152.812 48.6419 152.237 47.913C151.661 47.1841 151.316 46.3401 151.201 45.381H154.913C155.028 45.9373 155.335 46.4168 155.834 46.8196C156.352 47.2033 157.013 47.3951 157.819 47.3951C158.625 47.3951 159.21 47.232 159.574 46.9059C159.958 46.5798 160.15 46.2058 160.15 45.7838C160.15 45.17 159.881 44.7575 159.344 44.5465C158.807 44.3164 158.059 44.0958 157.1 43.8848C156.486 43.7505 155.862 43.5874 155.229 43.3956C154.596 43.2038 154.011 42.964 153.474 42.6763C152.956 42.3694 152.534 41.9857 152.208 41.5254C151.882 41.0458 151.719 40.4607 151.719 39.7702C151.719 38.5042 152.218 37.4396 153.215 36.5764C154.232 35.7132 155.651 35.2816 157.474 35.2816C159.162 35.2816 160.504 35.6748 161.502 36.4613C162.519 37.2477 163.123 38.3315 163.315 39.7126H159.833C159.622 38.6576 158.826 38.1301 157.445 38.1301C156.754 38.1301 156.217 38.2644 155.834 38.5329C155.469 38.8015 155.287 39.1372 155.287 39.54C155.287 39.962 155.565 40.2977 156.121 40.5471C156.678 40.7964 157.416 41.0266 158.337 41.2376C159.334 41.4678 160.246 41.7268 161.07 42.0145C161.914 42.283 162.586 42.6955 163.084 43.2517C163.583 43.7888 163.833 44.5657 163.833 45.5824C163.852 46.4648 163.622 47.2608 163.142 47.9706C162.662 48.6803 161.972 49.2366 161.07 49.6394C160.169 50.0422 159.104 50.2436 157.877 50.2436Z" fill="#242A31"/>
<path d="M171.843 50.2436C170.577 50.2436 169.464 50.0422 168.505 49.6394C167.546 49.2174 166.779 48.6419 166.203 47.913C165.628 47.1841 165.282 46.3401 165.167 45.381H168.879C168.994 45.9373 169.301 46.4168 169.8 46.8196C170.318 47.2033 170.98 47.3951 171.785 47.3951C172.591 47.3951 173.176 47.232 173.54 46.9059C173.924 46.5798 174.116 46.2058 174.116 45.7838C174.116 45.17 173.847 44.7575 173.31 44.5465C172.773 44.3164 172.025 44.0958 171.066 43.8848C170.452 43.7505 169.829 43.5874 169.196 43.3956C168.563 43.2038 167.978 42.964 167.44 42.6763C166.923 42.3694 166.501 41.9857 166.174 41.5254C165.848 41.0458 165.685 40.4607 165.685 39.7702C165.685 38.5042 166.184 37.4396 167.182 36.5764C168.198 35.7132 169.618 35.2816 171.44 35.2816C173.128 35.2816 174.471 35.6748 175.468 36.4613C176.485 37.2477 177.089 38.3315 177.281 39.7126H173.799C173.588 38.6576 172.792 38.1301 171.411 38.1301C170.721 38.1301 170.184 38.2644 169.8 38.5329C169.435 38.8015 169.253 39.1372 169.253 39.54C169.253 39.962 169.531 40.2977 170.088 40.5471C170.644 40.7964 171.382 41.0266 172.303 41.2376C173.301 41.4678 174.212 41.7268 175.037 42.0145C175.881 42.283 176.552 42.6955 177.051 43.2517C177.549 43.7888 177.799 44.5657 177.799 45.5824C177.818 46.4648 177.588 47.2608 177.108 47.9706C176.629 48.6803 175.938 49.2366 175.037 49.6394C174.135 50.0422 173.07 50.2436 171.843 50.2436Z" fill="#242A31"/>
</svg>
