<svg width="200" height="79" viewBox="0 0 200 79" fill="none" xmlns="http://www.w3.org/2000/svg">
<path d="M67.5471 31.1367C69.0639 31.1367 70.3768 31.3895 71.4858 31.8951C72.6112 32.4007 73.4756 33.1183 74.079 34.0479C74.6825 34.9776 74.9842 36.0784 74.9842 37.3506C74.9842 38.6064 74.6825 39.7072 74.079 40.6532C73.4756 41.5828 72.6112 42.3004 71.4858 42.806C70.3768 43.2953 69.0639 43.5399 67.5471 43.5399H64.0977V48.2615H60.1346V31.1367H67.5471ZM67.327 40.3107C68.5176 40.3107 69.4227 40.0579 70.0425 39.5523C70.6622 39.0304 70.9721 38.2965 70.9721 37.3506C70.9721 36.3883 70.6622 35.6544 70.0425 35.1488C69.4227 34.6269 68.5176 34.366 67.327 34.366H64.0977V40.3107H67.327Z" fill="#180B3D"/>
<path d="M79.9664 36.8368C80.4231 36.2007 81.0347 35.7196 81.8012 35.3934C82.584 35.0673 83.4811 34.9042 84.4922 34.9042V38.427C84.0682 38.3943 83.7828 38.378 83.636 38.378C82.5433 38.378 81.687 38.6879 81.0673 39.3077C80.4475 39.9111 80.1377 40.8244 80.1377 42.0476V48.2615H76.3213V35.0999H79.9664V36.8368Z" fill="#180B3D"/>
<path d="M91.6816 48.4572C90.2953 48.4572 89.0476 48.1718 87.9386 47.6009C86.8459 47.0138 85.9896 46.2065 85.3699 45.179C84.7501 44.1515 84.4402 42.9854 84.4402 41.6807C84.4402 40.3759 84.7501 39.2098 85.3699 38.1823C85.9896 37.1548 86.8459 36.3557 87.9386 35.7849C89.0476 35.1977 90.2953 34.9042 91.6816 34.9042C93.0679 34.9042 94.3074 35.1977 95.4001 35.7849C96.4928 36.3557 97.349 37.1548 97.9688 38.1823C98.5885 39.2098 98.8984 40.3759 98.8984 41.6807C98.8984 42.9854 98.5885 44.1515 97.9688 45.179C97.349 46.2065 96.4928 47.0138 95.4001 47.6009C94.3074 48.1718 93.0679 48.4572 91.6816 48.4572ZM91.6816 45.3258C92.6601 45.3258 93.4593 44.9996 94.079 44.3472C94.7151 43.6786 95.0331 42.7897 95.0331 41.6807C95.0331 40.5716 94.7151 39.6909 94.079 39.0386C93.4593 38.3699 92.6601 38.0355 91.6816 38.0355C90.703 38.0355 89.8957 38.3699 89.2596 39.0386C88.6236 39.6909 88.3055 40.5716 88.3055 41.6807C88.3055 42.7897 88.6236 43.6786 89.2596 44.3472C89.8957 44.9996 90.703 45.3258 91.6816 45.3258Z" fill="#180B3D"/>
<path d="M116.201 31.1367V48.2615H112.947L104.409 37.8643V48.2615H100.495V31.1367H103.773L112.287 41.5339V31.1367H116.201Z" fill="#180B3D"/>
<path d="M124.069 34.9042C126.108 34.9042 127.673 35.3934 128.766 36.372C129.859 37.3342 130.405 38.7939 130.405 40.751V48.2615H126.834V46.6224C126.116 47.8456 124.779 48.4572 122.821 48.4572C121.81 48.4572 120.93 48.2859 120.179 47.9434C119.445 47.6009 118.883 47.128 118.491 46.5245C118.1 45.9211 117.904 45.2361 117.904 44.4696C117.904 43.2464 118.361 42.2841 119.274 41.5828C120.204 40.8815 121.631 40.5309 123.555 40.5309H126.589C126.589 39.6991 126.336 39.063 125.831 38.6227C125.325 38.166 124.567 37.9377 123.555 37.9377C122.854 37.9377 122.161 38.0519 121.476 38.2802C120.807 38.4922 120.236 38.7858 119.763 39.1609L118.393 36.4943C119.111 35.9887 119.967 35.5973 120.962 35.32C121.973 35.0428 123.009 34.9042 124.069 34.9042ZM123.776 45.8885C124.428 45.8885 125.007 45.7417 125.512 45.4481C126.018 45.1382 126.377 44.6897 126.589 44.1026V42.7571H123.971C122.406 42.7571 121.623 43.2708 121.623 44.2983C121.623 44.7876 121.81 45.179 122.185 45.4726C122.577 45.7498 123.107 45.8885 123.776 45.8885Z" fill="#180B3D"/>
<path d="M141.125 47.6254C140.75 47.9027 140.285 48.1147 139.731 48.2615C139.192 48.3919 138.622 48.4572 138.018 48.4572C136.452 48.4572 135.237 48.0576 134.373 47.2584C133.525 46.4593 133.101 45.285 133.101 43.7356V38.3291H131.07V35.3934H133.101V32.1887H136.917V35.3934H140.195V38.3291H136.917V43.6867C136.917 44.2412 137.056 44.6734 137.333 44.9833C137.627 45.2769 138.034 45.4236 138.556 45.4236C139.16 45.4236 139.674 45.2606 140.098 44.9344L141.125 47.6254Z" fill="#180B3D"/>
<path d="M155.304 35.0999V48.2615H151.683V46.6958C151.177 47.2666 150.574 47.7069 149.873 48.0168C149.171 48.3104 148.413 48.4572 147.597 48.4572C145.869 48.4572 144.499 47.9597 143.488 46.9649C142.476 45.97 141.971 44.494 141.971 42.5369V35.0999H145.787V41.9742C145.787 44.0944 146.676 45.1545 148.454 45.1545C149.367 45.1545 150.101 44.861 150.655 44.2738C151.21 43.6704 151.487 42.7815 151.487 41.6073V35.0999H155.304Z" fill="#180B3D"/>
<path d="M161.261 36.8368C161.718 36.2007 162.329 35.7196 163.096 35.3934C163.879 35.0673 164.776 34.9042 165.787 34.9042V38.427C165.363 38.3943 165.078 38.378 164.931 38.378C163.838 38.378 162.982 38.6879 162.362 39.3077C161.742 39.9111 161.432 40.8244 161.432 42.0476V48.2615H157.616V35.0999H161.261V36.8368Z" fill="#180B3D"/>
<path d="M179.606 41.7296C179.606 41.7785 179.582 42.121 179.533 42.7571H169.576C169.755 43.5725 170.179 44.2168 170.848 44.6897C171.517 45.1627 172.348 45.3992 173.343 45.3992C174.028 45.3992 174.632 45.3013 175.154 45.1056C175.692 44.8936 176.189 44.5674 176.646 44.1271L178.676 46.3288C177.437 47.7477 175.627 48.4572 173.245 48.4572C171.761 48.4572 170.448 48.1718 169.307 47.6009C168.165 47.0138 167.284 46.2065 166.665 45.179C166.045 44.1515 165.735 42.9854 165.735 41.6807C165.735 40.3922 166.037 39.2343 166.64 38.2068C167.26 37.163 168.1 36.3557 169.16 35.7849C170.236 35.1977 171.435 34.9042 172.756 34.9042C174.045 34.9042 175.211 35.1814 176.254 35.7359C177.298 36.2905 178.114 37.0896 178.701 38.1334C179.304 39.1609 179.606 40.3596 179.606 41.7296ZM172.781 37.7909C171.916 37.7909 171.19 38.0355 170.603 38.5248C170.016 39.0141 169.657 39.6828 169.527 40.5309H176.01C175.879 39.6991 175.521 39.0386 174.933 38.5493C174.346 38.0437 173.629 37.7909 172.781 37.7909Z" fill="#180B3D"/>
<path fill-rule="evenodd" clip-rule="evenodd" d="M38.4005 21.5999C37.8191 21.2636 37.1022 21.2636 36.5207 21.5999C32.3905 23.9891 29.6049 28.4593 29.6049 33.5823C29.6049 34.3125 29.6615 35.0294 29.7705 35.7289C26.9273 34.7633 23.8488 35.1147 21.3343 36.5636C20.7522 36.899 20.3938 37.5199 20.3943 38.1916C20.3973 41.7356 22.2383 45.1896 25.5355 47.0932C27.1531 48.0271 28.9185 48.4709 30.66 48.4718C30.3951 49.2225 30.2509 50.0303 30.2509 50.8717C30.2509 54.8534 33.4787 58.0811 37.4603 58.0811C41.442 58.0811 44.6698 54.8534 44.6698 50.8717C44.6698 50.0284 44.525 49.219 44.2589 48.4668C45.8965 48.4152 47.546 47.9703 49.065 47.0933C52.3622 45.1897 54.2032 41.7357 54.2062 38.1918C54.2067 37.52 53.8483 36.8991 53.2662 36.5638C50.8508 35.1719 47.9149 34.7929 45.1671 35.621C45.2654 34.9558 45.3163 34.275 45.3163 33.5823C45.3163 28.4593 42.5307 23.9891 38.4005 21.5999ZM33.3592 33.5823C33.3592 30.2556 34.97 27.3033 37.4606 25.4656C39.9512 27.3033 41.562 30.2556 41.562 33.5823C41.562 36.9091 39.9512 39.8614 37.4606 41.699C34.97 39.8614 33.3592 36.9091 33.3592 33.5823ZM44.8639 39.8167C46.5974 38.8158 48.6004 38.6994 50.3502 39.3327C50.0238 41.1647 48.9214 42.8411 47.1879 43.842C45.4543 44.8429 43.4513 44.9593 41.7015 44.326C42.028 42.494 43.1303 40.8175 44.8639 39.8167ZM24.2503 39.3325C26.0001 38.6992 28.0031 38.8157 29.7367 39.8165C31.4702 40.8174 32.5726 42.4938 32.899 44.3258C31.1492 44.9592 29.1462 44.8427 27.4126 43.8419C25.6791 42.841 24.5767 41.1645 24.2503 39.3325ZM34.0052 50.8717C34.0052 48.9635 35.5521 47.4166 37.4603 47.4166C39.3685 47.4166 40.9155 48.9635 40.9155 50.8717C40.9155 52.7799 39.3685 54.3268 37.4603 54.3268C35.5521 54.3268 34.0052 52.7799 34.0052 50.8717Z" fill="#22B24B"/>
</svg>
