<svg width="200" height="86" viewBox="0 0 200 86" fill="none" xmlns="http://www.w3.org/2000/svg">
<path d="M72.2556 28.6642V23.1562H99.9674V28.6642H89.2706V61.2668H83.0632V28.6642H72.2556Z" fill="black"/>
<path d="M116.942 56.2596L118.494 56.0927L118.605 60.5992C114.392 61.4523 110.66 61.8788 107.409 61.8788C103.308 61.8788 100.352 60.7476 98.5411 58.485C96.7676 56.2225 95.8808 52.6062 95.8808 47.636C95.8808 37.7699 99.8898 32.8369 107.908 32.8369C115.667 32.8369 119.547 37.0838 119.547 45.5775L119.159 49.9171H101.977C102.014 52.2167 102.513 53.9043 103.474 54.98C104.435 56.0556 106.227 56.5934 108.85 56.5934C111.473 56.5934 114.171 56.4821 116.942 56.2596ZM113.616 45.2437C113.616 42.499 113.173 40.5888 112.286 39.5132C111.436 38.4005 109.977 37.8441 107.908 37.8441C105.839 37.8441 104.324 38.419 103.363 39.5688C102.439 40.7186 101.959 42.6103 101.922 45.2437H113.616Z" fill="black"/>
<path d="M122.585 61.2668V33.4489H128.57V36.787C131.711 34.7471 134.852 33.4303 137.992 32.8369V38.9012C134.815 39.5317 132.099 40.3477 129.845 41.3492L128.626 41.8499V61.2668H122.585Z" fill="black"/>
<path d="M139.84 61.2668V33.4489H145.825V36.787C148.966 34.7471 152.107 33.4303 155.247 32.8369V38.9012C152.07 39.5317 149.354 40.3477 147.1 41.3492L145.881 41.8499V61.2668H139.84Z" fill="black"/>
<path d="M177.601 42.0168V54.7018C177.638 55.5178 177.842 56.1298 178.211 56.5378C178.617 56.9087 179.227 57.1498 180.04 57.261L179.874 61.8788C176.696 61.8788 174.239 61.1926 172.502 59.8203C169.546 61.1926 166.572 61.8788 163.579 61.8788C158.074 61.8788 155.321 58.9301 155.321 53.0327C155.321 50.2138 156.06 48.1738 157.538 46.9128C159.053 45.6517 161.362 44.8913 164.466 44.6317L171.616 44.0197V42.0168C171.616 40.5332 171.283 39.4946 170.618 38.9012C169.99 38.3078 169.048 38.011 167.791 38.011C165.427 38.011 162.471 38.1594 158.924 38.4561L157.15 38.5674L156.928 34.2834C160.956 33.3191 164.651 32.8369 168.013 32.8369C171.412 32.8369 173.851 33.5787 175.329 35.0623C176.844 36.5089 177.601 38.827 177.601 42.0168ZM165.186 48.9157C162.637 49.1382 161.362 50.5291 161.362 53.0883C161.362 55.6476 162.489 56.9272 164.743 56.9272C166.59 56.9272 168.549 56.6305 170.618 56.037L171.616 55.7032V48.3037L165.186 48.9157Z" fill="black"/>
<path fill-rule="evenodd" clip-rule="evenodd" d="M55.4891 19.9609C60.3119 19.9609 64.3358 23.3819 65.2664 27.9297C65.3993 28.5793 65.4691 29.252 65.4691 29.941V55.4899C65.4691 61.0017 61.0009 65.4699 55.4891 65.4699H29.9402C28.849 65.4699 27.7987 65.2948 26.8159 64.9711C22.8343 63.6599 19.9601 59.9105 19.9601 55.4899V29.941C19.9601 24.4292 24.4284 19.9609 29.9402 19.9609H55.4891ZM51.4412 23.1546H55.4891C58.7965 23.1546 61.5514 25.5206 62.1533 28.6524C60.2325 28.8701 58.0371 28.6684 55.7187 27.6748C53.6642 26.7943 52.3014 25.1629 51.4412 23.1546ZM41.9654 23.1546H48.0312C49.0389 26.1883 50.9697 29.1141 54.4607 30.6102C57.2611 31.8104 59.9206 32.0888 62.2755 31.8549V35.1181C59.0782 36.1302 55.8921 36.5399 53.3427 35.7937C52.0765 35.4231 50.6236 34.4391 49.06 32.8912C47.5178 31.3644 45.979 29.4008 44.5258 27.2544C43.6228 25.9205 42.7629 24.531 41.9654 23.1546ZM38.2976 23.1546H34.0716C34.2642 26.7684 33.4127 31.1826 30.2452 35.6543C28.1467 38.617 25.6651 40.2465 23.1538 40.9743V47.3409C24.667 46.4219 26.4484 45.1669 28.5341 43.4722C33.4622 39.4681 37.3437 37.875 40.2869 37.5836C43.2133 37.2938 45.2933 38.3089 46.2097 39.5918C47.1716 40.9385 47.7155 42.7433 47.9201 44.6469C48.1273 46.5734 48.001 48.7221 47.5151 50.8547C46.5492 55.0942 44.0971 59.5072 39.6794 61.8859C39.4388 62.0155 39.196 62.1456 38.9514 62.2763H43.9153C45.8568 59.8117 47.4103 57.363 47.9675 55.4439C48.5964 53.2776 48.8546 50.9811 49.096 48.8339L49.096 48.8335L49.0961 48.833C49.1828 48.0618 49.2673 47.3098 49.3661 46.5901C49.5373 45.3429 49.7735 44.0215 50.281 43.0687C50.5496 42.5645 50.9763 42.0031 51.6631 41.6791C52.3862 41.3379 53.1384 41.3798 53.7983 41.5998C55.6481 42.2164 58.1073 42.3441 62.2755 41.3001V38.4514C59.0612 39.3571 55.5564 39.7692 52.4456 38.8587C50.4384 38.2712 48.533 36.8634 46.8132 35.1607C45.0719 33.4369 43.4022 31.2912 41.8813 29.0448C40.5804 27.1232 39.3693 25.0994 38.2976 23.1546ZM62.2755 44.5846C58.3045 45.4935 55.4491 45.4556 53.034 44.7084C52.8555 45.1262 52.6889 45.8673 52.53 47.0244C52.4512 47.5991 52.3779 48.2526 52.2987 48.9592L52.2986 48.9597C52.0518 51.1618 51.7472 53.8792 51.0345 56.3343C50.4881 58.2161 49.3067 60.2834 47.902 62.2763H51.1151C51.7077 60.8026 52.2535 59.399 52.6821 58.2192C53.1427 56.9515 53.4313 56.0398 53.5241 55.5758C53.7004 54.6946 54.0361 53.7467 54.8235 53.0745C55.6426 52.3753 56.6486 52.2253 57.5912 52.2732C58.5192 52.3204 59.6075 52.5704 60.8352 52.9225C61.2816 53.0505 61.7613 53.1966 62.2755 53.3589V44.5846ZM62.1717 56.6792C61.3381 56.4085 60.6046 56.1788 59.9547 55.9924C58.7685 55.6521 57.9729 55.4904 57.429 55.4627C57.0778 55.4449 56.9356 55.4881 56.8948 55.5063C56.8719 55.5334 56.7585 55.688 56.6557 56.2021C56.509 56.9357 56.1372 58.0616 55.6838 59.3097C55.3583 60.2057 54.9715 61.2157 54.5529 62.2763H55.4891C58.8314 62.2763 61.6094 59.8601 62.1717 56.6792ZM32.0606 62.2763C34.1521 61.1977 36.263 60.0983 38.1653 59.074C41.532 57.2612 43.5709 53.79 44.4013 50.1452C44.8136 48.3357 44.9119 46.5423 44.7448 44.9883C44.5753 43.4113 44.146 42.1971 43.611 41.4481C43.5293 41.3338 42.7152 40.5524 40.6016 40.7616C38.5049 40.9692 35.2007 42.1705 30.548 45.9508C27.6355 48.3172 25.1981 49.9387 23.1538 51.0105V54.6122C23.6577 54.151 24.2268 53.7658 24.7527 53.4371C25.2885 53.1023 25.8723 52.7729 26.446 52.4512L26.5882 52.3715C27.1241 52.0711 27.656 51.7729 28.1842 51.4566C29.3398 50.7645 30.3788 50.0416 31.1777 49.2006C32.5609 47.7443 34.5574 46.0063 36.4345 44.8198C37.3604 44.2345 38.3605 43.7168 39.304 43.4791C40.1895 43.256 41.5626 43.1653 42.5193 44.259C43.4298 45.2998 43.8071 46.8608 43.1439 48.8869C42.514 50.8111 40.932 53.241 37.8741 56.4008C34.7 59.6807 31.5257 61.3238 28.8495 61.8474C28.5477 61.9064 28.2507 61.9515 27.9598 61.9828C28.5863 62.1736 29.2513 62.2763 29.9402 62.2763H32.0606ZM23.1538 37.5952C24.701 36.9535 26.2425 35.7801 27.6392 33.8084C30.3969 29.9151 31.0633 26.1398 30.8736 23.1546H29.9402C26.1921 23.1546 23.1538 26.1929 23.1538 29.941V37.5952ZM56.8917 55.5078C56.8842 55.5113 56.8811 55.5137 56.8815 55.514C56.8817 55.5141 56.8834 55.5134 56.8863 55.5116L56.8883 55.5103L56.8917 55.5078ZM38.1408 47.5194C36.5326 48.5359 34.7365 50.0912 33.4932 51.4C32.3961 52.555 31.0649 53.4538 29.8252 54.1964C29.2555 54.5376 28.6842 54.8577 28.1547 55.1545L28.008 55.2367C27.4278 55.5621 26.9075 55.8565 26.4452 56.1454C25.4484 56.7683 25.0317 57.1871 24.9011 57.4552C24.8637 57.5321 24.8592 57.5762 24.8708 57.6433C24.8872 57.7389 24.9559 57.9596 25.2294 58.3242L25.256 58.3596L25.2806 58.3965C25.2821 58.3987 25.3181 58.4482 25.4324 58.5181C25.5504 58.5903 25.7331 58.6721 25.9927 58.736C26.5142 58.8643 27.2734 58.9016 28.2363 58.7132C30.151 58.3386 32.7653 57.0875 35.5792 54.1799C38.5093 51.152 39.7011 49.1388 40.1088 47.8933C40.3515 47.1518 40.3018 46.7502 40.2242 46.545C40.1853 46.5522 40.1389 46.5622 40.0842 46.5759C39.6231 46.6921 38.9574 47.0032 38.1408 47.5194ZM40.396 46.53C40.3953 46.5308 40.3858 46.5309 40.3696 46.5278C40.3886 46.5276 40.3967 46.5292 40.396 46.53Z" fill="#56704E"/>
</svg>
