<svg width="200" height="83" viewBox="0 0 200 83" fill="none" xmlns="http://www.w3.org/2000/svg">
<path d="M79.508 54.6747C76.9795 54.6747 74.7702 54.1 72.8802 52.9507C70.9902 51.8013 69.5216 50.205 68.4744 48.1618C67.4272 46.093 66.9036 43.6921 66.9036 40.9593C66.9036 38.2009 67.44 35.7745 68.5127 33.6801C69.611 31.5602 71.1562 29.9129 73.1484 28.738C75.1661 27.5376 77.5541 26.9374 80.3126 26.9374C83.4541 26.9374 86.0592 27.6908 88.1281 29.1977C90.1969 30.7046 91.5378 32.7862 92.1507 35.4424H86.6722C86.2636 34.1909 85.5229 33.2204 84.4502 32.5308C83.3775 31.8156 81.9983 31.4581 80.3126 31.4581C77.6308 31.4581 75.562 32.3137 74.1061 34.0249C72.6503 35.7106 71.9224 38.0348 71.9224 40.9976C71.9224 43.9603 72.6375 46.259 74.0678 47.8936C75.5237 49.5027 77.4903 50.3072 79.9678 50.3072C82.3941 50.3072 84.2203 49.6559 85.4463 48.3533C86.6978 47.0252 87.4512 45.2884 87.7066 43.143H80.9255V39.4651H92.6488V54.215H88.1281L87.7449 50.6903C86.8766 51.9674 85.7911 52.9507 84.4885 53.6403C83.1859 54.3299 81.5257 54.6747 79.508 54.6747Z" fill="black"/>
<path d="M95.3856 54.215V26.6309H100.289V54.215H95.3856Z" fill="black"/>
<path d="M112.503 54.6747C110.664 54.6747 109.004 54.2533 107.522 53.4104C106.066 52.5676 104.904 51.4055 104.036 49.9241C103.193 48.4172 102.772 46.6804 102.772 44.7138C102.772 42.7471 103.206 41.0231 104.074 39.5417C104.943 38.0348 106.105 36.86 107.561 36.0171C109.042 35.1743 110.702 34.7528 112.541 34.7528C114.354 34.7528 115.989 35.1743 117.445 36.0171C118.926 36.86 120.088 38.0348 120.931 39.5417C121.8 41.0231 122.234 42.7471 122.234 44.7138C122.234 46.6804 121.8 48.4172 120.931 49.9241C120.088 51.4055 118.926 52.5676 117.445 53.4104C115.963 54.2533 114.316 54.6747 112.503 54.6747ZM112.503 50.4221C113.78 50.4221 114.891 49.9496 115.836 49.0046C116.781 48.0341 117.253 46.6038 117.253 44.7138C117.253 42.8237 116.781 41.4062 115.836 40.4612C114.891 39.4907 113.792 39.0054 112.541 39.0054C111.238 39.0054 110.115 39.4907 109.17 40.4612C108.25 41.4062 107.79 42.8237 107.79 44.7138C107.79 46.6038 108.25 48.0341 109.17 49.0046C110.115 49.9496 111.226 50.4221 112.503 50.4221Z" fill="black"/>
<path d="M132.557 54.6747C130.871 54.6747 129.389 54.4065 128.112 53.8701C126.835 53.3083 125.814 52.542 125.048 51.5715C124.281 50.6009 123.822 49.4771 123.668 48.2001H128.61C128.764 48.9408 129.172 49.5793 129.836 50.1156C130.526 50.6265 131.407 50.8819 132.48 50.8819C133.553 50.8819 134.332 50.6648 134.817 50.2306C135.328 49.7964 135.583 49.2983 135.583 48.7364C135.583 47.9191 135.226 47.37 134.51 47.0891C133.795 46.7826 132.799 46.4889 131.522 46.2079C130.705 46.0291 129.875 45.812 129.032 45.5566C128.189 45.3012 127.41 44.9819 126.695 44.5988C126.005 44.1902 125.443 43.6794 125.009 43.0664C124.575 42.4279 124.358 41.6489 124.358 40.7294C124.358 39.0437 125.022 37.6262 126.35 36.4768C127.704 35.3275 129.594 34.7528 132.02 34.7528C134.268 34.7528 136.056 35.2764 137.384 36.3236C138.737 37.3708 139.542 38.8138 139.797 40.6528H135.162C134.881 39.248 133.821 38.5457 131.982 38.5457C131.062 38.5457 130.347 38.7244 129.836 39.082C129.351 39.4396 129.109 39.8865 129.109 40.4229C129.109 40.9848 129.479 41.4318 130.22 41.7638C130.96 42.0958 131.944 42.4023 133.169 42.6833C134.498 42.9898 135.711 43.3346 136.809 43.7177C137.933 44.0752 138.827 44.6244 139.491 45.3651C140.155 46.0802 140.487 47.1146 140.487 48.4683C140.512 49.6431 140.206 50.7031 139.567 51.6481C138.929 52.5931 138.009 53.3338 136.809 53.8701C135.609 54.4065 134.191 54.6747 132.557 54.6747Z" fill="black"/>
<path d="M150.769 54.6747C149.084 54.6747 147.602 54.4065 146.325 53.8701C145.048 53.3083 144.027 52.542 143.26 51.5715C142.494 50.6009 142.034 49.4771 141.881 48.2001H146.823C146.977 48.9408 147.385 49.5793 148.049 50.1156C148.739 50.6265 149.62 50.8819 150.693 50.8819C151.765 50.8819 152.544 50.6648 153.03 50.2306C153.54 49.7964 153.796 49.2983 153.796 48.7364C153.796 47.9191 153.438 47.37 152.723 47.0891C152.008 46.7826 151.012 46.4889 149.735 46.2079C148.918 46.0291 148.088 45.812 147.245 45.5566C146.402 45.3012 145.623 44.9819 144.908 44.5988C144.218 44.1902 143.656 43.6794 143.222 43.0664C142.788 42.4279 142.571 41.6489 142.571 40.7294C142.571 39.0437 143.235 37.6262 144.563 36.4768C145.917 35.3275 147.807 34.7528 150.233 34.7528C152.481 34.7528 154.268 35.2764 155.597 36.3236C156.95 37.3708 157.755 38.8138 158.01 40.6528H153.374C153.094 39.248 152.034 38.5457 150.195 38.5457C149.275 38.5457 148.56 38.7244 148.049 39.082C147.564 39.4396 147.321 39.8865 147.321 40.4229C147.321 40.9848 147.692 41.4318 148.432 41.7638C149.173 42.0958 150.156 42.4023 151.382 42.6833C152.71 42.9898 153.924 43.3346 155.022 43.7177C156.146 44.0752 157.04 44.6244 157.704 45.3651C158.368 46.0802 158.7 47.1146 158.7 48.4683C158.725 49.6431 158.419 50.7031 157.78 51.6481C157.142 52.5931 156.222 53.3338 155.022 53.8701C153.821 54.4065 152.404 54.6747 150.769 54.6747Z" fill="black"/>
<path d="M162.493 62.6434L166.899 52.9507H165.75L158.356 35.2126H163.681L169.006 48.5832L174.561 35.2126H179.772L167.704 62.6434H162.493Z" fill="black"/>
<path d="M30.8077 51.1452L50.1368 31.8161L46.9582 28.6376L27.6292 47.9667L30.8077 51.1452Z" fill="#0053EA"/>
<path d="M38.4494 31.8161L30.8077 39.4578L27.6292 36.2793L35.2709 28.6376L38.4494 31.8161Z" fill="#0053EA"/>
<path d="M42.495 51.1452L50.1368 43.5035L46.9582 40.3249L39.3165 47.9667L42.495 51.1452Z" fill="#0053EA"/>
<path fill-rule="evenodd" clip-rule="evenodd" d="M20.2282 58.5462V20.7871H57.9873V58.5462H20.2282ZM24.7233 25.2822H53.4922V54.0511H24.7233V25.2822Z" fill="#0053EA"/>
</svg>
