<svg width="200" height="80" viewBox="0 0 200 80" fill="none" xmlns="http://www.w3.org/2000/svg">
<path d="M22.8019 28.7498C23.8605 26.7121 29.4141 21.7703 33.8958 20.81C35.9049 20.3795 36.6412 21.4902 36.7343 23.1073C45.7997 24.155 54.2653 31.7903 56.2073 41.0537C56.7326 43.5595 56.7306 45.9461 56.2775 48.1154L58.4896 48.0805C57.43 50.9805 53.9055 57.0481 45.6071 58.788C45.2914 58.8543 44.9761 58.9067 44.6615 58.9461C43.8698 59.0625 43.0486 59.1227 42.2009 59.1227C32.3733 59.1227 22.7105 51.033 20.6185 41.0537C19.622 36.3004 20.523 31.9757 22.8019 28.7498Z" fill="#9F163D"/>
<ellipse cx="17.4723" cy="18.2908" rx="17.4723" ry="18.2908" transform="matrix(1 0 0.205179 0.978724 20.5517 20.3086)" fill="#EB323A"/>
<ellipse cx="13.7227" cy="14.3591" rx="13.7227" ry="14.3591" transform="matrix(1 0 0.205179 0.978724 25.4793 23.3203)" fill="white"/>
<ellipse cx="10.1572" cy="10.3751" rx="10.1572" ry="10.3751" transform="matrix(1 0 0.205179 0.978724 30.2174 26.7676)" fill="#EB323A"/>
<circle cx="6.50855" cy="6.50855" r="6.50855" transform="matrix(1 0 0.205179 0.978724 35.2766 30.1328)" fill="white"/>
<circle cx="3.21223" cy="3.21223" r="3.21223" transform="matrix(1 0 0.205179 0.978724 39.2495 33.3574)" fill="#EB323A"/>
<path d="M88.6121 48.6125C88.6121 48.8358 88.7931 49.0168 89.0164 49.0168H92.09C92.3133 49.0168 92.4943 48.8358 92.4943 48.6125V33.8511H89.0164C88.7931 33.8511 88.6121 34.0321 88.6121 34.2554V48.6125Z" fill="#EB323A"/>
<path d="M88.7371 31.4492C89.1095 31.8402 89.6774 32.0357 90.4408 32.0357C91.2043 32.0357 91.7628 31.8402 92.1166 31.4492C92.4704 31.0396 92.6473 30.5368 92.6473 29.941C92.6473 29.3079 92.4704 28.7959 92.1166 28.4049C91.7628 28.0139 91.2043 27.8184 90.4408 27.8184C89.6774 27.8184 89.1095 28.0139 88.7371 28.4049C88.3834 28.7959 88.2065 29.3079 88.2065 29.941C88.2065 30.5368 88.3834 31.0396 88.7371 31.4492Z" fill="#EB323A"/>
<path fill-rule="evenodd" clip-rule="evenodd" d="M82.4925 41.9227C81.3009 42.4813 79.8485 42.7606 78.1355 42.7606H75.0633V48.6125C75.0633 48.8358 74.8823 49.0168 74.659 49.0168H71.5016C71.2783 49.0168 71.0973 48.8358 71.0973 48.6125V28.893C71.0973 28.6697 71.2783 28.4887 71.5016 28.4887H74.659C74.7026 28.4887 74.7446 28.4956 74.784 28.5084C74.8234 28.4956 74.8654 28.4887 74.909 28.4887H78.1355C79.8485 28.4887 81.3009 28.768 82.4925 29.3266C83.7028 29.8851 84.6245 30.6858 85.2575 31.7285C85.8906 32.7526 86.2071 33.9722 86.2071 35.3872V35.8341C86.2071 37.2492 85.8906 38.4781 85.2575 39.5208C84.6245 40.5449 83.7028 41.3455 82.4925 41.9227ZM80.4816 32.3988C79.9416 32.0823 79.2713 31.924 78.4707 31.924H75.0633V39.3253H78.4707C79.2713 39.3253 79.9416 39.167 80.4816 38.8505C81.0402 38.534 81.4591 38.0964 81.7384 37.5378C82.0363 36.9792 82.1853 36.3369 82.1853 35.6107C82.1853 34.8845 82.0363 34.2421 81.7384 33.6835C81.4591 33.125 81.0402 32.6967 80.4816 32.3988Z" fill="#EB323A"/>
<path d="M95.9763 49.0168C95.753 49.0168 95.572 48.8358 95.572 48.6125V34.2554C95.572 34.0321 95.753 33.8511 95.9763 33.8511H98.2399C98.4632 33.8511 98.6443 34.0321 98.6443 34.2554V37.5884C98.7342 37.1994 98.846 36.8381 98.9794 36.5044C99.389 35.4617 99.9942 34.6797 100.795 34.1584C101.614 33.637 102.629 33.3763 103.839 33.3763H104.007C105.813 33.3763 107.181 33.9628 108.112 35.1359C109.043 36.2903 109.509 38.0219 109.509 40.3308V48.6125C109.509 48.8358 109.328 49.0168 109.104 49.0168H106.031C105.808 49.0168 105.627 48.8358 105.627 48.6125V39.9956C105.627 39.0646 105.357 38.3105 104.817 37.7333C104.295 37.1561 103.569 36.8675 102.638 36.8675C101.689 36.8675 100.916 37.1654 100.32 37.7613C99.7428 38.3385 99.4542 39.1205 99.4542 40.1073V48.6125C99.4542 48.8358 99.2732 49.0168 99.0499 49.0168H95.9763Z" fill="#EB323A"/>
<path fill-rule="evenodd" clip-rule="evenodd" d="M123.989 41.9227C122.797 42.4813 121.345 42.7606 119.632 42.7606H116.559V48.6125C116.559 48.8358 116.378 49.0168 116.155 49.0168H112.998C112.774 49.0168 112.593 48.8358 112.593 48.6125V28.893C112.593 28.6697 112.774 28.4887 112.998 28.4887H116.155C116.199 28.4887 116.241 28.4956 116.28 28.5084C116.319 28.4956 116.361 28.4887 116.405 28.4887H119.632C121.345 28.4887 122.797 28.768 123.989 29.3266C125.199 29.8851 126.12 30.6858 126.754 31.7285C127.387 32.7526 127.703 33.9722 127.703 35.3872V35.8341C127.703 37.2492 127.387 38.4781 126.754 39.5208C126.12 40.5449 125.199 41.3455 123.989 41.9227ZM121.978 32.3988C121.438 32.0823 120.767 31.924 119.967 31.924H116.559V39.3253H119.967C120.767 39.3253 121.438 39.167 121.978 38.8505C122.536 38.534 122.955 38.0964 123.234 37.5378C123.532 36.9792 123.681 36.3369 123.681 35.6107C123.681 34.8845 123.532 34.2421 123.234 33.6835C122.955 33.125 122.536 32.6967 121.978 32.3988Z" fill="#EB323A"/>
<path fill-rule="evenodd" clip-rule="evenodd" d="M136.344 49.5475C135.004 49.5475 133.821 49.3334 132.797 48.9051C131.773 48.4769 130.907 47.8996 130.2 47.1735C129.492 46.4287 128.952 45.5908 128.58 44.6598C128.226 43.7288 128.049 42.7606 128.049 41.7552V41.1686C128.049 40.1259 128.235 39.1391 128.608 38.2081C128.999 37.2585 129.548 36.4206 130.256 35.6945C130.982 34.9497 131.857 34.3725 132.881 33.9628C133.905 33.5346 135.059 33.3205 136.344 33.3205C137.629 33.3205 138.783 33.5346 139.807 33.9628C140.832 34.3725 141.697 34.9497 142.405 35.6945C143.131 36.4206 143.68 37.2585 144.053 38.2081C144.425 39.1391 144.611 40.1259 144.611 41.1686V41.7552C144.611 42.7606 144.425 43.7288 144.053 44.6598C143.699 45.5908 143.168 46.4287 142.461 47.1735C141.753 47.8996 140.887 48.4769 139.863 48.9051C138.839 49.3334 137.666 49.5475 136.344 49.5475ZM136.344 46.2239C137.294 46.2239 138.094 46.0191 138.746 45.6094C139.398 45.1812 139.891 44.6133 140.226 43.9057C140.562 43.1796 140.729 42.3603 140.729 41.4479C140.729 40.517 140.552 39.6977 140.198 38.9901C139.863 38.264 139.361 37.6961 138.69 37.2865C138.039 36.8582 137.257 36.6441 136.344 36.6441C135.432 36.6441 134.641 36.8582 133.97 37.2865C133.319 37.6961 132.816 38.264 132.462 38.9901C132.108 39.6977 131.931 40.517 131.931 41.4479C131.931 42.3603 132.099 43.1796 132.434 43.9057C132.788 44.6133 133.291 45.1812 133.942 45.6094C134.594 46.0191 135.395 46.2239 136.344 46.2239Z" fill="#EB323A"/>
<path d="M147.34 48.6125C147.34 48.8358 147.521 49.0168 147.745 49.0168H150.818C151.042 49.0168 151.223 48.8358 151.223 48.6125V33.8511H147.745C147.521 33.8511 147.34 34.0321 147.34 34.2554V48.6125Z" fill="#EB323A"/>
<path d="M147.465 31.4492C147.838 31.8402 148.406 32.0357 149.169 32.0357C149.933 32.0357 150.491 31.8402 150.845 31.4492C151.199 31.0396 151.376 30.5368 151.376 29.941C151.376 29.3079 151.199 28.7959 150.845 28.4049C150.491 28.0139 149.933 27.8184 149.169 27.8184C148.406 27.8184 147.838 28.0139 147.465 28.4049C147.112 28.7959 146.935 29.3079 146.935 29.941C146.935 30.5368 147.112 31.0396 147.465 31.4492Z" fill="#EB323A"/>
<path d="M154.705 49.0168C154.481 49.0168 154.3 48.8358 154.3 48.6125V34.2554C154.3 34.0321 154.481 33.8511 154.705 33.8511H156.968C157.191 33.8511 157.373 34.0321 157.373 34.2554V37.5884C157.462 37.1994 157.574 36.8381 157.708 36.5044C158.117 35.4617 158.722 34.6797 159.523 34.1584C160.342 33.637 161.357 33.3763 162.567 33.3763H162.735C164.541 33.3763 165.91 33.9628 166.841 35.1359C167.772 36.2903 168.237 38.0219 168.237 40.3308V48.6125C168.237 48.8358 168.056 49.0168 167.833 49.0168H164.759C164.536 49.0168 164.355 48.8358 164.355 48.6125V39.9956C164.355 39.0646 164.085 38.3105 163.545 37.7333C163.024 37.1561 162.297 36.8675 161.366 36.8675C160.417 36.8675 159.644 37.1654 159.048 37.7613C158.471 38.3385 158.182 39.1205 158.182 40.1073V48.6125C158.182 48.8358 158.001 49.0168 157.778 49.0168H154.705Z" fill="#EB323A"/>
<path d="M174.142 48.6817C175.055 49.0354 176.209 49.2123 177.606 49.2123H179.38C179.603 49.2123 179.784 49.0313 179.784 48.808V46.293C179.784 46.0697 179.603 45.8887 179.38 45.8887H177.41C176.665 45.8887 176.088 45.6932 175.679 45.3022C175.288 44.8926 175.092 44.3154 175.092 43.5706L175.106 36.6999H179.38C179.603 36.6999 179.784 36.5189 179.784 36.2956V34.2554C179.784 34.0321 179.603 33.8511 179.38 33.8511H175.111L175.119 29.983C175.12 29.7594 174.938 29.5779 174.715 29.5779H171.893C171.67 29.5779 171.489 29.7584 171.488 29.9814L171.48 33.8511H169.464C169.24 33.8511 169.059 34.0321 169.059 34.2554V36.2956C169.059 36.5189 169.24 36.6999 169.464 36.6999H171.475L171.461 43.3192C171.461 44.7902 171.685 45.9632 172.131 46.8383C172.578 47.6948 173.249 48.3093 174.142 48.6817Z" fill="#EB323A"/>
</svg>
