<svg width="200" height="73" viewBox="0 0 200 73" fill="none" xmlns="http://www.w3.org/2000/svg">
<path d="M150.65 21.541V51.5045H155.036V21.541H150.65Z" fill="black"/>
<path fill-rule="evenodd" clip-rule="evenodd" d="M110.996 51.9882C109.266 51.9882 107.82 51.5851 106.66 50.779C106.533 50.6908 106.409 50.5991 106.289 50.504V51.5045H102.419V22.0247H106.837V34.6538C107.921 33.957 109.232 33.6086 110.771 33.6086C112.437 33.6086 113.888 34.0063 115.124 34.8017C116.36 35.597 117.316 36.688 117.994 38.0745C118.682 39.4503 119.025 41.0249 119.025 42.7984C119.025 44.5396 118.687 46.1035 118.01 47.49C117.343 48.8765 116.408 49.9729 115.204 50.779C114.001 51.5851 112.598 51.9882 110.996 51.9882ZM106.676 40.0253C106.418 40.8207 106.289 41.7451 106.289 42.7984C106.289 43.8517 106.418 44.7761 106.676 45.5714C106.934 46.3668 107.353 46.9848 107.933 47.4255C108.524 47.8662 109.309 48.0865 110.287 48.0865C111.233 48.0865 112.007 47.8501 112.609 47.3772C113.211 46.9042 113.657 46.2701 113.947 45.4747C114.237 44.6686 114.382 43.7765 114.382 42.7984C114.382 41.8311 114.232 40.9497 113.931 40.1543C113.63 39.3482 113.162 38.7087 112.528 38.2357C111.905 37.7521 111.104 37.5102 110.126 37.5102C109.212 37.5102 108.471 37.7306 107.901 38.1713C107.342 38.6119 106.934 39.23 106.676 40.0253Z" fill="black"/>
<path d="M95.4861 41.2184V51.5045H99.8715V40.0576C99.8715 38.1551 99.3609 36.6181 98.3398 35.4466C97.3295 34.2642 95.8301 33.6731 93.8417 33.6731C92.6808 33.6731 91.6221 33.931 90.6655 34.447C89.7897 34.9147 89.0752 35.5576 88.5219 36.3755C88.1094 35.6332 87.5395 35.0226 86.8123 34.5437C85.9417 33.9633 84.8238 33.6731 83.4588 33.6731C82.2657 33.6731 81.1855 33.9364 80.2182 34.4631C79.4872 34.8656 78.8691 35.3779 78.3641 36V34.0923H74.4947V51.5045H78.9122V40.9604C78.9122 39.9609 79.1863 39.1494 79.7345 38.526C80.2934 37.8918 81.0297 37.5747 81.9433 37.5747C82.8999 37.5747 83.6469 37.8972 84.1843 38.5421C84.7325 39.1762 85.0065 40.0683 85.0065 41.2184V51.5045H89.3919V40.9604C89.3919 40.2941 89.5155 39.7083 89.7627 39.2031C90.0206 38.6872 90.3753 38.2895 90.8268 38.01C91.2782 37.7198 91.8102 37.5747 92.4229 37.5747C93.3795 37.5747 94.1265 37.8972 94.6639 38.5421C95.2121 39.1762 95.4861 40.0683 95.4861 41.2184Z" fill="black"/>
<path d="M58.7836 51.3272C59.6435 51.7893 60.7559 52.0204 62.1209 52.0204C63.8299 52.0204 65.2433 51.6496 66.3612 50.908C66.8916 50.5594 67.3592 50.1597 67.7638 49.709V51.5045H71.6332V34.0923H67.2156V42.9274C67.2156 44.0022 67.092 44.8728 66.8448 45.5392C66.6084 46.1948 66.302 46.6946 65.9258 47.0386C65.5497 47.3718 65.1466 47.5975 64.7167 47.7157C64.2867 47.834 63.8837 47.8931 63.5075 47.8931C62.5724 47.8931 61.8469 47.6835 61.3309 47.2643C60.8258 46.8451 60.4603 46.3238 60.2346 45.7004C60.0089 45.077 59.8745 44.459 59.8316 43.8464C59.7886 43.2229 59.7671 42.7124 59.7671 42.3147V34.0923H55.3173V43.8625C55.3173 44.1527 55.3388 44.6148 55.3818 45.249C55.4247 45.8831 55.5483 46.5872 55.7526 47.361C55.9568 48.1242 56.2954 48.8604 56.7683 49.5698C57.252 50.2792 57.9237 50.865 58.7836 51.3272Z" fill="black"/>
<path d="M120.961 34.0923V51.5045H125.378V42.6049C125.378 41.9385 125.47 41.342 125.653 40.8153C125.835 40.2779 126.104 39.8158 126.459 39.4288C126.813 39.0311 127.249 38.7141 127.765 38.4776C128.281 38.2304 128.856 38.0853 129.49 38.0423C130.135 37.9885 130.699 38.0369 131.183 38.1874V34.0923C130.656 34.0278 130.129 34.017 129.603 34.06C129.076 34.0923 128.565 34.1836 128.071 34.3341C127.576 34.4738 127.12 34.6727 126.701 34.9306C126.152 35.2531 125.69 35.6615 125.314 36.156C125.136 36.39 124.975 36.6361 124.83 36.8943V34.0923H120.961Z" fill="black"/>
<path fill-rule="evenodd" clip-rule="evenodd" d="M140.416 51.9882C138.631 51.9882 137.057 51.6066 135.692 50.8435C134.338 50.0696 133.273 49.0109 132.5 47.6674C131.736 46.3131 131.355 44.7653 131.355 43.0241C131.355 41.1217 131.731 39.4664 132.483 38.0584C133.236 36.6504 134.273 35.5594 135.595 34.7855C136.917 34.0009 138.438 33.6086 140.158 33.6086C141.985 33.6086 143.538 34.0385 144.817 34.8984C146.096 35.7583 147.042 36.9674 147.655 38.526C148.267 40.0845 148.482 41.917 148.3 44.0237H136.073C136.21 45.0687 136.535 45.9178 137.046 46.571C137.755 47.4524 138.793 47.8931 140.158 47.8931C141.018 47.8931 141.754 47.705 142.367 47.3288C142.979 46.9526 143.447 46.4098 143.769 45.7004L148.154 46.958C147.499 48.5487 146.462 49.7848 145.043 50.6661C143.635 51.5475 142.092 51.9882 140.416 51.9882ZM143.108 38.5904C143.483 39.0996 143.734 39.8251 143.863 40.767H136.189C136.36 39.9628 136.645 39.3017 137.046 38.7839C137.755 37.8703 138.857 37.4135 140.351 37.4135C141.63 37.4135 142.549 37.8058 143.108 38.5904Z" fill="black"/>
<path d="M158.579 51.5045V21.541H162.964V51.5045H158.579Z" fill="black"/>
<path fill-rule="evenodd" clip-rule="evenodd" d="M167.846 51.2788C168.717 51.7517 169.776 51.9882 171.022 51.9882C172.527 51.9882 173.769 51.7302 174.747 51.2143C175.526 50.799 176.263 50.1833 176.956 49.3671V51.5045H180.793V40.8637C180.793 40.0683 180.76 39.3482 180.696 38.7033C180.631 38.0584 180.427 37.4135 180.083 36.7686C179.471 35.6078 178.568 34.7909 177.375 34.318C176.182 33.8451 174.817 33.6086 173.28 33.6086C171.184 33.6086 169.528 34.06 168.314 34.9629C167.099 35.8657 166.272 37.0373 165.831 38.4776L169.797 39.7351C170.077 38.9398 170.566 38.3862 171.264 38.0745C171.963 37.7628 172.635 37.607 173.28 37.607C174.44 37.607 175.268 37.8488 175.762 38.3325C176.151 38.7123 176.387 39.2611 176.47 39.979C175.727 40.0914 175.024 40.1982 174.36 40.2994C173.231 40.4607 172.221 40.6326 171.329 40.8153C170.437 40.9981 169.668 41.2077 169.023 41.4441C168.088 41.7881 167.341 42.218 166.782 42.7339C166.234 43.2391 165.836 43.8248 165.589 44.4912C165.342 45.1576 165.218 45.8939 165.218 46.7C165.218 47.6674 165.439 48.5541 165.879 49.3602C166.331 50.1556 166.986 50.7951 167.846 51.2788ZM173.989 48.1188C173.441 48.3982 172.764 48.538 171.958 48.538C171.452 48.538 171.017 48.4627 170.652 48.3123C170.286 48.1618 170.001 47.9468 169.797 47.6674C169.604 47.3772 169.507 47.0332 169.507 46.6355C169.507 46.3453 169.566 46.082 169.684 45.8455C169.813 45.6091 170.007 45.3941 170.265 45.2006C170.533 44.9964 170.883 44.8083 171.313 44.6363C171.689 44.4966 172.124 44.3676 172.619 44.2494C173.113 44.1312 173.763 44.0022 174.569 43.8625C175.087 43.7658 175.708 43.6558 176.43 43.5324C176.42 43.839 176.401 44.1855 176.375 44.5719C176.343 45.1953 176.214 45.7434 175.988 46.2163C175.87 46.4635 175.644 46.7699 175.311 47.1353C174.989 47.5008 174.548 47.8286 173.989 48.1188Z" fill="black"/>
<path fill-rule="evenodd" clip-rule="evenodd" d="M31.116 34.2174H19.2074V39.4034C19.2074 47.1472 25.485 53.4248 33.2288 53.4248C40.9726 53.4248 47.2502 47.1472 47.2502 39.4034V34.2174H34.9574L34.9574 25.9582C34.9574 22.6697 32.2916 20.0039 29.0032 20.0039C25.7147 20.0039 23.0489 22.6697 23.0489 25.9582L26.8903 25.9582C26.8903 24.7913 27.8363 23.8454 29.0032 23.8454C30.17 23.8454 31.116 24.7913 31.116 25.9582L31.116 34.2174ZM31.116 38.0589L31.1159 45.3577L34.9574 45.3577L34.9574 38.0589H43.4087V39.4034C43.4087 45.0256 38.851 49.5833 33.2288 49.5833C27.6066 49.5833 23.0489 45.0256 23.0489 39.4034V38.0589H31.116Z" fill="#EE1B23"/>
</svg>
