<svg width="53" height="35" viewBox="0 0 53 35" fill="none" xmlns="http://www.w3.org/2000/svg">
<path d="M1.33804 34V34.5H1.83804H8.26296C13.2217 34.5 17.2232 33.3319 19.9893 30.8831C22.766 28.4249 24.22 24.7459 24.22 19.8966V1V0.5H23.72H1H0.5V1V18.6983V19.1983H1H10.4633V19.9888C10.4633 21.2857 10.21 21.9339 9.83222 22.2835C9.4457 22.6412 8.80309 22.8073 7.70427 22.8073H1.83804H1.33804V23.3073V34ZM29.618 34V34.5H30.118H36.5429C41.5017 34.5 45.5032 33.3319 48.2693 30.8831C51.046 28.4249 52.5 24.7459 52.5 19.8966V1V0.5H52H29.28H28.78V1V18.6983V19.1983H29.28H38.7433V19.9888C38.7433 21.2857 38.49 21.9339 38.1122 22.2835C37.7257 22.6412 37.0831 22.8073 35.9843 22.8073H30.118H29.618V23.3073V34Z" fill="#E40872" stroke="black"/>
</svg>
